<mxfile host="app.diagrams.net" modified="2024-07-15T12:37:51.884Z" agent="Mozilla/5.0 (Macintosh; Intel Mac OS X 10.15; rv:128.0) Gecko/20100101 Firefox/128.0" version="23.1.2" etag="yrha2_93BeQaG7IR3Acm" type="github">
  <diagram name="Страница — 1" id="J2G5kpr65n91CHf7ycJw">
    <mxGraphModel>
      <root>
        <mxCell id="0" />
        <mxCell id="1" parent="0" />
      </root>
    </mxGraphModel>
  </diagram>
</mxfile>
